<svg xmlns="http://www.w3.org/2000/svg" style="display:none">
<symbol id="i-bolt" viewBox="0 0 24 24"><path fill="currentColor" d="M13 3L4 14h7l-1 7 9-11h-7l1-7Z"/></symbol>
<symbol id="i-shield" viewBox="0 0 24 24"><path fill="currentColor" d="M12 2l8 3v6c0 5-3.5 9.74-8 11-4.5-1.26-8-6-8-11V5l8-3z"/></symbol>
<symbol id="i-stars" viewBox="0 0 24 24"><path fill="currentColor" d="M12 17l-5.5 3 1.5-6-4.5-4 6-.5L12 3l2.5 6.5 6 .5-4.5 4 1.5 6z"/></symbol>
<symbol id="i-briefcase" viewBox="0 0 24 24"><path fill="currentColor" d="M9 3h6a2 2 0 012 2v2h3a2 2 0 012 2v3H1V9a2 2 0 012-2h3V5a2 2 0 012-2zm9 7v7a2 2 0 01-2 2H8a2 2 0 01-2-2v-7h12zM9 5v2h6V5H9z"/></symbol>
<symbol id="i-map" viewBox="0 0 24 24"><path fill="currentColor" d="M15 4l-6 3-6-3v16l6 3 6-3 6 3V7l-6-3zM9 7l6-3v13l-6 3V7z"/></symbol>
<symbol id="i-clock" viewBox="0 0 24 24"><path fill="currentColor" d="M12 2a10 10 0 100 20 10 10 0 000-20zm1 5h-2v6l5 3 1-1-4-2V7z"/></symbol>
</svg>